<?xml version="1.0" standalone="no"?>
<!DOCTYPE svg PUBLIC "-//W3C//DTD SVG 20010904//EN"
 "http://www.w3.org/TR/2001/REC-SVG-20010904/DTD/svg10.dtd">
<svg version="1.0" xmlns="http://www.w3.org/2000/svg"
 width="250.000000pt" height="250.000000pt" viewBox="0 0 250.000000 250.000000"
 preserveAspectRatio="xMidYMid meet">
<metadata>
Created by potrace 1.14, written by Peter Selinger 2001-2017
</metadata>
<g transform="translate(0.000000,250.000000) scale(0.100000,-0.100000)"
fill="#000000" stroke="none">
<path d="M1137 2289 c-326 -35 -622 -228 -791 -517 -171 -291 -185 -684 -34
-986 142 -283 384 -476 701 -558 112 -30 345 -32 461 -4 145 33 266 86 376
164 474 335 589 980 259 1457 -69 100 -216 238 -317 299 -194 116 -434 169
-655 145z m255 -717 c78 -35 158 -118 187 -195 9 -22 8 -27 -2 -21 -6 4 -4 -2
7 -14 16 -18 18 -34 14 -109 -2 -48 -10 -97 -17 -108 l-13 -20 6 20 c6 20 6
20 -9 1 -11 -15 -12 -23 -3 -33 9 -11 7 -15 -8 -19 -11 -3 -20 -15 -21 -27 -2
-29 -65 -83 -133 -115 -109 -52 -262 -38 -354 33 -78 59 -158 195 -126 215 7
4 9 13 6 19 -4 6 -12 9 -17 6 -5 -4 -9 10 -9 29 0 20 5 36 10 36 7 0 8 13 5
34 -12 61 59 182 136 233 100 66 238 80 341 35z m759 -262 c16 0 30 6 30 13 1
6 5 -6 8 -28 3 -22 5 -52 3 -66 -3 -22 -8 -25 -33 -21 -23 3 -31 0 -38 -19 -7
-18 -10 2 -9 71 0 52 3 85 5 73 3 -18 11 -23 34 -23z m-61 -57 c0 -47 -4 -73
-9 -65 -6 10 -27 13 -75 10 l-66 -3 0 60 0 60 70 -3 c46 -2 70 0 70 7 0 6 2
11 5 11 3 0 5 -35 5 -77z m171 37 c27 0 29 -3 29 -35 0 -32 -2 -35 -29 -35
-23 0 -31 -5 -34 -22 -2 -13 -4 13 -4 57 0 44 2 70 4 58 3 -18 11 -23 34 -23z
m-341 -35 c0 -22 -5 -47 -10 -55 -6 -10 -10 -11 -10 -2 0 7 -12 12 -29 12 -24
0 -30 5 -34 30 -9 43 1 60 34 60 16 0 29 5 29 13 0 8 4 7 10 -3 5 -8 10 -33
10 -55z m-1681 -15 c12 0 38 24 44 40 3 8 5 -21 5 -65 0 -44 -2 -73 -5 -64 -6
23 -51 31 -56 10 -3 -9 -4 22 -4 69 0 47 2 68 4 48 2 -21 8 -38 12 -38z m111
20 c19 0 30 6 33 18 3 9 5 -13 6 -50 l1 -68 -30 0 c-26 0 -30 -4 -31 -27 -1
-22 -3 -20 -10 12 -8 41 -10 164 -2 133 3 -12 14 -18 33 -18z m289 12 l31 5 0
-49 c0 -44 -2 -48 -24 -48 -13 0 -31 -3 -40 -6 -14 -5 -16 4 -16 57 0 41 4 59
9 50 6 -9 20 -12 40 -9z m1173 -41 c-4 -21 -6 -22 -11 -7 -4 9 -11 17 -16 16
-6 0 -11 6 -13 14 -2 9 3 16 12 16 9 0 16 6 17 13 0 6 4 3 8 -7 4 -11 5 -31 3
-45z m-1243 -21 c0 -36 -3 -59 -6 -52 -3 8 -27 12 -69 12 -59 0 -64 -2 -65
-22 -2 -38 -16 29 -18 82 l-1 45 80 0 80 0 -1 -65z m206 19 l20 -8 -20 0 c-11
-1 -32 -7 -47 -15 -31 -17 -38 -12 -38 25 0 26 1 27 33 17 17 -6 41 -14 52
-19z"/>
<path d="M1150 1553 c-99 -34 -175 -115 -205 -217 -48 -162 44 -338 206 -391
68 -23 178 -17 238 13 24 12 49 19 55 15 6 -3 8 -3 4 2 -4 4 14 31 40 60 89
97 110 225 57 344 -68 150 -243 227 -395 174z m228 -23 c104 -46 173 -148 179
-265 4 -89 -21 -172 -52 -167 -15 2 -17 0 -6 -6 31 -22 -63 -106 -152 -136
-92 -31 -201 -13 -279 47 -207 158 -138 482 117 548 46 12 141 1 193 -21z"/>
<path d="M1143 1523 c-13 -2 -23 -9 -23 -14 0 -14 30 -11 46 6 9 8 12 14 7 14
-4 -1 -18 -4 -30 -6z"/>
<path d="M1378 1499 c7 -9 10 -24 6 -33 -3 -9 -1 -16 4 -16 22 0 22 19 0 42
-13 13 -17 17 -10 7z"/>
<path d="M1178 1475 c2 -14 10 -24 16 -22 17 6 13 41 -5 45 -13 2 -15 -3 -11
-23z"/>
<path d="M1276 1490 c4 -8 14 -23 22 -32 7 -9 11 -21 7 -27 -4 -7 1 -9 12 -5
16 5 16 4 -1 -10 -11 -9 -15 -16 -9 -16 6 0 15 6 21 13 8 9 2 23 -24 52 -20
22 -32 33 -28 25z"/>
<path d="M1133 1418 c-2 -26 1 -29 18 -25 16 4 19 2 14 -16 -6 -21 -5 -21 6
-3 10 16 9 21 -5 31 -9 7 -16 17 -16 23 0 26 -15 17 -17 -10z"/>
<path d="M1230 1435 c0 -8 4 -15 10 -15 5 0 7 7 4 15 -4 8 -8 15 -10 15 -2 0
-4 -7 -4 -15z"/>
<path d="M1468 1405 c4 -42 3 -45 -23 -55 -20 -8 -25 -14 -18 -21 21 -21 48
-5 51 29 3 28 6 31 18 21 11 -9 14 -8 14 5 0 9 -7 16 -15 16 -8 0 -15 5 -15
11 0 5 5 7 11 4 6 -4 5 2 -3 14 -20 32 -26 25 -20 -24z"/>
<path d="M1020 1433 c0 -4 9 -17 21 -29 17 -18 19 -26 10 -42 -6 -12 -11 -23
-11 -26 0 -12 28 -5 40 9 10 12 7 21 -15 47 l-28 33 24 6 c21 6 20 7 -8 8 -18
1 -33 -2 -33 -6z"/>
<path d="M1415 1429 l-20 -8 20 -1 20 -1 -20 -9 c-18 -8 -18 -9 -2 -9 10 -1
20 6 24 14 7 21 2 24 -22 14z"/>
<path d="M1210 1400 c-13 -8 -12 -10 3 -10 9 0 17 5 17 10 0 12 -1 12 -20 0z"/>
<path d="M1231 1347 c-17 -17 -13 -31 4 -17 18 15 20 -1 3 -18 -7 -7 -9 -12
-4 -12 4 0 14 7 22 15 13 13 14 17 1 29 -11 11 -17 12 -26 3z"/>
<path d="M1310 1350 c0 -5 11 -10 25 -10 14 0 25 5 25 10 0 6 -11 10 -25 10
-14 0 -25 -4 -25 -10z"/>
<path d="M1140 1340 c0 -6 7 -10 15 -10 8 0 15 2 15 4 0 2 -7 6 -15 10 -8 3
-15 1 -15 -4z"/>
<path d="M1525 1330 c3 -5 8 -10 11 -10 2 0 4 5 4 10 0 6 -5 10 -11 10 -5 0
-7 -4 -4 -10z"/>
<path d="M1280 1300 c0 -5 4 -10 9 -10 6 0 13 5 16 10 3 6 -1 10 -9 10 -9 0
-16 -4 -16 -10z"/>
<path d="M1320 1300 c0 -5 7 -10 15 -10 8 0 15 5 15 10 0 6 -7 10 -15 10 -8 0
-15 -4 -15 -10z"/>
<path d="M1090 1290 c0 -5 5 -10 11 -10 5 0 7 5 4 10 -3 6 -8 10 -11 10 -2 0
-4 -4 -4 -10z"/>
<path d="M1396 1254 c13 -44 13 -47 -9 -64 -20 -17 -20 -19 -4 -25 30 -12 46
11 35 51 -11 42 -5 52 19 34 10 -8 3 1 -15 18 -18 18 -35 32 -37 32 -2 0 3
-21 11 -46z"/>
<path d="M1171 1261 l-33 -27 17 -34 c14 -26 15 -38 6 -52 -15 -24 -14 -28 9
-28 24 0 26 20 6 59 -19 37 -15 62 15 79 24 14 24 14 -1 -7 -14 -11 -20 -21
-13 -21 6 0 15 5 18 11 4 6 13 8 20 5 9 -3 11 2 8 15 -8 30 -16 30 -52 0z"/>
<path d="M1085 1239 c-4 -6 -5 -13 -2 -16 7 -7 27 6 27 18 0 12 -17 12 -25 -2z"/>
<path d="M1031 1231 c-8 -6 -9 -11 -3 -15 6 -3 14 -1 17 5 9 14 2 20 -14 10z"/>
<path d="M1485 1230 c-3 -5 1 -10 9 -10 9 0 16 5 16 10 0 6 -4 10 -9 10 -6 0
-13 -4 -16 -10z"/>
<path d="M1237 1213 c3 -14 1 -23 -6 -23 -6 0 -11 -7 -11 -16 0 -20 34 -14 38
6 1 9 -4 24 -12 35 -15 20 -15 19 -9 -2z"/>
<path d="M1290 1217 c0 -9 10 -12 30 -9 17 2 30 8 30 13 0 5 -13 9 -30 9 -18
0 -30 -5 -30 -13z"/>
<path d="M967 1211 c6 -7 9 -20 6 -27 -3 -8 0 -14 5 -14 21 0 21 18 -1 36 -12
10 -17 12 -10 5z"/>
<path d="M1044 1174 c-18 -15 -18 -15 6 -10 14 3 29 6 33 6 5 0 5 5 2 10 -9
14 -18 13 -41 -6z"/>
<path d="M1470 1185 c0 -2 14 -11 30 -20 17 -9 30 -11 30 -6 0 6 -9 15 -19 21
-21 11 -41 13 -41 5z"/>
<path d="M1267 1164 c-8 -8 1 -24 14 -24 5 0 9 7 9 15 0 15 -12 20 -23 9z"/>
<path d="M1320 1160 c0 -5 4 -10 9 -10 6 0 13 5 16 10 3 6 -1 10 -9 10 -9 0
-16 -4 -16 -10z"/>
<path d="M1474 1145 c11 -8 27 -15 35 -15 13 1 12 4 -3 15 -11 8 -27 15 -35
15 -13 -1 -12 -4 3 -15z"/>
<path d="M1076 1131 c-4 -7 -5 -15 -2 -18 9 -9 19 4 14 18 -4 11 -6 11 -12 0z"/>
<path d="M1030 1120 c-8 -5 -11 -12 -7 -16 4 -4 13 -2 19 4 15 15 7 24 -12 12z"/>
<path d="M1293 1096 c-14 -18 -23 -22 -35 -15 -22 12 -32 -5 -13 -21 13 -10
19 -9 36 6 21 19 44 54 35 54 -2 0 -13 -11 -23 -24z"/>
<path d="M1410 1110 c-13 -8 -12 -10 3 -10 9 0 17 5 17 10 0 12 -1 12 -20 0z"/>
<path d="M1105 1070 c-6 -10 1 -14 19 -11 5 1 13 -4 17 -11 7 -10 9 -9 9 3 0
9 -7 20 -16 23 -21 8 -22 8 -29 -4z"/>
<path d="M1440 1049 c0 -11 4 -18 10 -14 5 3 7 12 3 20 -7 21 -13 19 -13 -6z"/>
<path d="M1340 1030 c-8 -5 -11 -12 -7 -16 4 -4 13 -2 19 4 15 15 7 24 -12 12z"/>
</g>
</svg>
